<svg width="100" height="65" viewBox="0 0 100 65" fill="none" xmlns="http://www.w3.org/2000/svg">
<g clip-path="url(#clip0_102_67)">
<path d="M3 1C9.93 1.33 16.86 1.66 24 2C24.66 3.98 25.32 5.96 26 8C26.2681 7.03062 26.5362 6.06125 26.8125 5.0625C27.2044 4.05187 27.5962 3.04125 28 2C30.9267 1.02443 32.4406 0.939366 35.4492 1.12109C36.2968 1.16943 37.1443 1.21777 38.0176 1.26758C38.8987 1.32365 39.7797 1.37973 40.6875 1.4375C41.5802 1.48971 42.4729 1.54191 43.3926 1.5957C45.5954 1.72528 47.7978 1.86024 50 2C50.495 3.485 50.495 3.485 51 5C51.66 5 52.32 5 53 5C53.66 3.68 54.32 2.36 55 1C68.86 1 82.72 1 97 1C97.495 2.485 97.495 2.485 98 4C98.66 4 99.32 4 100 4C99.3648 12.004 97.6484 18.8362 94 26C93.67 26.825 93.34 27.65 93 28.5C92.1032 30.742 91.0787 32.8426 90 35C89.67 35.825 89.34 36.65 89 37.5C87.6186 40.9536 86.0668 43.8998 84 47C83.4239 48.382 82.883 49.7791 82.375 51.1875C82.1146 51.9029 81.8542 52.6184 81.5859 53.3555C81.3926 53.8982 81.1992 54.4409 81 55C80.34 55 79.68 55 79 55C79.33 55.99 79.66 56.98 80 58C78.4252 60.9414 77.6869 62.1943 75 64C70.9638 64.8748 67.0517 64.7926 62.9375 64.6875C61.8489 64.7023 60.7603 64.7171 59.6387 64.7324C51.7013 64.6494 51.7013 64.6494 48.2539 61.457C47.8401 60.6462 47.4263 59.8354 47 59C46.505 59.99 46.505 59.99 46 61C43.3734 63.7405 41.8817 64.0129 38.0312 64.4336C36.5209 64.4508 35.0104 64.4516 33.5 64.4375C32.3611 64.4675 32.3611 64.4675 31.1992 64.498C27.7263 64.495 25.4763 64.3351 22.6016 62.3125C20.8443 59.7753 19.8418 57.4914 18.875 54.5625C17.4792 50.4138 17.4792 50.4138 15.8828 46.3398C15 44 15 44 15 41C14.34 40.67 13.68 40.34 13 40C10.3192 36.2021 9.21457 32.4534 8 28C6.98984 25.7103 5.8131 23.6963 4.5 21.5625C1.49299 16.4255 0.281926 11.9205 0 6C1.4375 3.5625 1.4375 3.5625 3 2C3 1.67 3 1.34 3 1ZM52 6C51.67 6.66 51.34 7.32 51 8C51.66 8.66 52.32 9.32 53 10C52.67 8.68 52.34 7.36 52 6ZM27 11C28 13 28 13 28 13L27 11ZM28 13C29 15 29 15 29 15L28 13ZM54 13C55 15 55 15 55 15L54 13ZM29 15C30 17 30 17 30 17L29 15ZM31 20C32 22 32 22 32 22L31 20ZM57 20C58 22 58 22 58 22L57 20ZM32 22C33 24 33 24 33 24L32 22ZM35 29C36 31 36 31 36 31L35 29ZM36 31C37 33 37 33 37 33L36 31ZM39 38C40 40 40 40 40 40L39 38ZM42 45C43 47 43 47 43 47L42 45ZM43 47C44 49 44 49 44 49L43 47ZM46 54C46 55.65 46 57.3 46 59C46.66 58.34 47.32 57.68 48 57C47.34 56.01 46.68 55.02 46 54Z" fill="#3265FD"/>
<path d="M3 1C9.93 1.33 16.86 1.66 24 2C24.66 3.98 25.32 5.96 26 8C26.2681 7.03062 26.5362 6.06125 26.8125 5.0625C27.2044 4.05187 27.5962 3.04125 28 2C30.9267 1.02443 32.4406 0.939366 35.4492 1.12109C36.2968 1.16943 37.1443 1.21777 38.0176 1.26758C38.8987 1.32365 39.7797 1.37973 40.6875 1.4375C41.5802 1.48971 42.4729 1.54191 43.3926 1.5957C45.5954 1.72528 47.7978 1.86024 50 2C50.495 3.485 50.495 3.485 51 5C51.66 5 52.32 5 53 5C53.66 3.68 54.32 2.36 55 1C68.86 1 82.72 1 97 1C97.495 2.485 97.495 2.485 98 4C98.66 4 99.32 4 100 4C99.3648 12.004 97.6484 18.8362 94 26C93.67 26.825 93.34 27.65 93 28.5C92.1032 30.742 91.0787 32.8426 90 35C89.67 35.825 89.34 36.65 89 37.5C87.6186 40.9536 86.0668 43.8998 84 47C83.4239 48.382 82.883 49.7791 82.375 51.1875C82.1146 51.9029 81.8542 52.6184 81.5859 53.3555C81.3926 53.8982 81.1992 54.4409 81 55C80.34 55 79.68 55 79 55C79.33 55.99 79.66 56.98 80 58C78.4252 60.9414 77.6869 62.1943 75 64C70.9638 64.8748 67.0517 64.7926 62.9375 64.6875C61.8489 64.7023 60.7603 64.7171 59.6387 64.7324C51.7013 64.6494 51.7013 64.6494 48.2539 61.457C47.8401 60.6462 47.4263 59.8354 47 59C46.505 59.99 46.505 59.99 46 61C43.3734 63.7405 41.8817 64.0129 38.0312 64.4336C36.5209 64.4508 35.0104 64.4516 33.5 64.4375C32.3611 64.4675 32.3611 64.4675 31.1992 64.498C27.7263 64.495 25.4763 64.3351 22.6016 62.3125C20.8443 59.7753 19.8418 57.4914 18.875 54.5625C17.4792 50.4138 17.4792 50.4138 15.8828 46.3398C15 44 15 44 15 41C14.34 40.67 13.68 40.34 13 40C10.3192 36.2021 9.21457 32.4534 8 28C6.98984 25.7103 5.8131 23.6963 4.5 21.5625C1.49299 16.4255 0.281926 11.9205 0 6C1.4375 3.5625 1.4375 3.5625 3 2C3 1.67 3 1.34 3 1ZM29 5C28.4621 7.36117 28.4621 7.36117 28.25 10C28.152 10.8869 28.0541 11.7738 27.9531 12.6875C27.737 15.1987 27.737 15.1987 30 17C32.7459 20.2655 34.2995 23.6835 35.9609 27.6016C36.3696 28.5563 36.3696 28.5563 36.7865 29.5304C37.6545 31.5598 38.5153 33.5921 39.375 35.625C44.2855 49.7615 44.2855 49.7615 52 62C55.0701 62.4152 58.156 62.4645 61.25 62.5625C62.1098 62.625 62.9696 62.6875 63.8555 62.752C66.4565 62.8181 68.489 62.685 71 62C72.4768 60.5236 72.4768 60.5236 73.5137 58.543C73.9303 57.8161 74.3469 57.0893 74.7762 56.3405C76.8065 52.4577 78.6343 48.5094 80.3906 44.4961C80.7807 43.614 81.1708 42.7319 81.5727 41.823C82.3892 39.9714 83.2025 38.1183 84.0127 36.2639C85.2501 33.4372 86.5033 30.618 87.7578 27.7988C88.553 25.99 89.3474 24.1808 90.1406 22.3711C90.5135 21.5355 90.8864 20.6999 91.2706 19.839C93.2763 15.2087 94.8832 11.0821 95 6C94.1946 3.90921 94.1946 3.90921 92 3C89.3073 2.68966 86.8501 2.55573 84.1562 2.56641C83.3907 2.56116 82.6252 2.55592 81.8365 2.55052C80.2193 2.5441 78.6021 2.54544 76.9849 2.55396C74.5086 2.56247 72.0346 2.5337 69.5586 2.50195C67.987 2.50034 66.4154 2.50092 64.8438 2.50391C63.7327 2.48706 63.7327 2.48706 62.5992 2.46986C59.2837 2.51489 57.4798 2.55009 55.0083 4.86768C53.4991 8.05922 54.0184 9.59573 55 13C56.8137 17.384 58.8839 21.6446 60.9375 25.9199C61.3423 26.7855 61.747 27.6511 62.1641 28.543C62.54 29.327 62.9159 30.111 63.3032 30.9187C64 33 64 33 63 36C62.01 36 61.02 36 60 36C59.6219 35.1425 59.2438 34.2849 58.8542 33.4014C57.4438 30.2089 56.0287 27.0186 54.6106 23.8296C53.9987 22.4512 53.3887 21.0719 52.7805 19.6919C51.904 17.7039 51.021 15.7189 50.1367 13.7344C49.3433 11.9434 49.3433 11.9434 48.5339 10.1162C47.2068 7.42019 46.0422 5.19553 44 3C40.8739 2.43972 40.8739 2.43972 37.4375 2.625C36.2812 2.63789 35.1249 2.65078 33.9336 2.66406C30.8796 2.70565 30.8796 2.70565 29 5ZM52 6C51.67 6.66 51.34 7.32 51 8C51.66 8.66 52.32 9.32 53 10C52.67 8.68 52.34 7.36 52 6ZM27 11C28 13 28 13 28 13L27 11ZM54 13C55 15 55 15 55 15L54 13ZM31 20C32 22 32 22 32 22L31 20ZM57 20C58 22 58 22 58 22L57 20ZM32 22C33 24 33 24 33 24L32 22ZM35 29C36 31 36 31 36 31L35 29ZM36 31C37 33 37 33 37 33L36 31ZM39 38C40 40 40 40 40 40L39 38ZM42 45C43 47 43 47 43 47L42 45ZM43 47C44 49 44 49 44 49L43 47ZM46 54C46 55.65 46 57.3 46 59C46.66 58.34 47.32 57.68 48 57C47.34 56.01 46.68 55.02 46 54Z" fill="#090F16"/>
<path d="M11.375 2.5C13.0882 2.42266 13.0882 2.42266 14.8359 2.34375C18 3 18 3 19.9634 5.53418C22.2552 9.22885 24.0121 13.1315 25.75 17.1094C26.09 17.8762 26.43 18.6431 26.7803 19.4332C27.4955 21.049 28.208 22.666 28.918 24.2842C29.9917 26.7311 31.0732 29.1744 32.1562 31.6172C33.8384 35.4184 35.5007 39.2276 37.1499 43.0432C37.8978 44.7646 38.6606 46.4796 39.4258 48.1934C39.8009 49.0628 40.176 49.9323 40.5625 50.8281C40.8732 51.5336 41.1838 52.239 41.5039 52.9658C42.151 55.6193 41.7853 57.4028 41 60C38.2674 62.7326 36.5043 62.4607 32.6875 62.625C31.557 62.6998 30.4265 62.7745 29.2617 62.8516C25.7413 61.9325 25.3837 61.7242 23.4844 58.875C20.0569 52.6008 17.3482 45.9523 14.5625 39.375C14.0104 38.0844 13.4576 36.794 12.9043 35.5039C12.08 33.5816 11.2582 31.6585 10.4447 29.7316C9.07918 26.4979 7.68284 23.285 6.21826 20.0947C5.93434 19.4655 5.65042 18.8362 5.35789 18.1879C4.57548 16.458 3.78021 14.7339 2.98413 13.0103C1.9188 9.75163 1.8737 8.20503 3 5C5.75285 2.24715 7.53343 2.60359 11.375 2.5Z" fill="#3265FC"/>
<path d="M3 1C7.29 1.33 11.58 1.66 16 2C16 2.33 16 2.66 16 3C14.8437 3.05607 14.8437 3.05607 13.6641 3.11328C12.1597 3.21189 12.1597 3.21189 10.625 3.3125C9.1284 3.39951 9.1284 3.39951 7.60156 3.48828C6.74305 3.65715 5.88453 3.82602 5 4C2.72098 6.76852 2.72098 6.76852 3.14746 9.65332C4.21773 13.8547 5.84372 17.6109 7.64062 21.5469C8.00468 22.3581 8.36874 23.1694 8.74384 24.0052C9.51393 25.7178 10.2874 27.429 11.064 29.1387C12.2385 31.7247 13.4034 34.315 14.5664 36.9062C16.3754 40.9299 18.2145 44.9388 20.0648 48.9436C20.8857 50.7486 21.6673 52.5714 22.4424 54.3965C23.4936 56.7729 24.4535 58.914 26 61C29.0292 62.3281 29.0292 62.3281 32.25 62C34.1663 61.9626 36.0839 61.953 38 62C38.33 62.66 38.66 63.32 39 64C36.7511 64.1082 34.5006 64.1857 32.25 64.25C30.997 64.2964 29.7441 64.3428 28.4531 64.3906C25 64 25 64 22.6797 62.3242C20.8426 59.7822 19.857 57.5372 18.875 54.5625C17.4792 50.4138 17.4792 50.4138 15.8828 46.3398C15 44 15 44 15 41C14.34 40.67 13.68 40.34 13 40C10.3192 36.2021 9.21457 32.4534 8 28C6.98984 25.7103 5.8131 23.6963 4.5 21.5625C1.49299 16.4255 0.281926 11.9205 0 6C1.4375 3.5625 1.4375 3.5625 3 2C3 1.67 3 1.34 3 1Z" fill="#141F2E"/>
<path d="M39 35C42.6247 38.6247 44.115 43.7783 46.125 48.4375C46.593 49.5003 47.0609 50.5632 47.543 51.6582C47.9851 52.6772 48.4273 53.6962 48.8828 54.7461C49.2891 55.6812 49.6953 56.6164 50.1138 57.5798C51 60 51 60 51 63C49.68 61.68 48.36 60.36 47 59C46.67 59.66 46.34 60.32 46 61C44.3012 59.3011 44.351 56.9999 43.9375 54.6875C43.7609 53.722 43.5843 52.7565 43.4024 51.7617C43 49 43 49 43 45C42.01 44.67 41.02 44.34 40 44C38.1984 41.4777 37.9516 40.3549 38.375 37.25C38.5813 36.5075 38.7875 35.765 39 35ZM39 38C40 40 40 40 40 40L39 38ZM46 54C46 55.65 46 57.3 46 59C46.66 58.34 47.32 57.68 48 57C47.34 56.01 46.68 55.02 46 54Z" fill="#162339"/>
<path d="M58.5318 0.864746C60.0449 0.907105 61.5578 0.960776 63.0703 1.02344C63.8666 1.04846 64.6628 1.07349 65.4831 1.09927C68.0309 1.18157 70.5778 1.27812 73.125 1.375C74.8502 1.43323 76.5755 1.49053 78.3008 1.54688C82.5343 1.68716 86.7672 1.84024 91 2C91 2.33 91 2.66 91 3C89.4708 3.02187 89.4708 3.02187 87.9107 3.04419C84.1346 3.10208 80.3591 3.17932 76.5835 3.26245C74.9482 3.29574 73.3128 3.32376 71.6773 3.34644C69.3286 3.37991 66.981 3.43221 64.6328 3.48828C63.5327 3.49787 63.5327 3.49787 62.4104 3.50764C60.1268 3.53995 60.1268 3.53995 57 4C54.7169 6.82377 54.7169 6.82377 55 10.0625C55 11.0319 55 12.0013 55 13C54.34 13.66 53.68 14.32 53 15C51.8388 10.7424 52.1059 7.30779 53 3C55 1 55 1 58.5318 0.864746Z" fill="#17264D"/>
<path d="M20 51C22 54 22 54 23.375 57.625C24.3047 59.5705 24.3047 59.5705 26 61C29.1944 61.6682 32.1571 61.8123 35.418 61.832C36.27 61.8875 37.1221 61.9429 38 62C38.33 62.66 38.66 63.32 39 64C36.7511 64.1082 34.5006 64.1857 32.25 64.25C30.3705 64.3196 30.3705 64.3196 28.4531 64.3906C25 64 25 64 22.6289 62.2109C20.4692 59.2796 19.7224 56.5464 19 53C19.33 52.34 19.66 51.68 20 51Z" fill="#111A2B"/>
<path d="M29 1C32.0391 1.02344 32.0391 1.02344 35.625 1.375C36.8135 1.48586 38.002 1.59672 39.2266 1.71094C40.1418 1.80633 41.057 1.90172 42 2C42 2.33 42 2.66 42 3C41.2175 3.06059 40.4351 3.12117 39.6289 3.18359C38.111 3.30928 38.111 3.30928 36.5625 3.4375C35.5532 3.51871 34.5438 3.59992 33.5039 3.68359C31.0636 3.73211 31.0636 3.73211 30 5C29.7692 6.34747 29.5885 7.70378 29.4375 9.0625C29.2209 11.0116 29.2209 11.0116 29 13C28.67 13 28.34 13 28 13C27.7784 11.3768 27.5731 9.75128 27.375 8.125C27.259 7.22008 27.143 6.31516 27.0234 5.38281C27.0157 4.59648 27.008 3.81016 27 3C27.66 2.34 28.32 1.68 29 1Z" fill="#162546"/>
<path d="M45 53C45.99 53 46.98 53 48 53C49.32 55.97 50.64 58.94 52 62C51.01 62 50.02 62 49 62C48.34 61.01 47.68 60.02 47 59C46.67 59.66 46.34 60.32 46 61C45 60 45 60 44.9375 56.4375C44.9581 55.3031 44.9787 54.1688 45 53ZM46 54C46 55.65 46 57.3 46 59C46.66 58.34 47.32 57.68 48 57C47.34 56.01 46.68 55.02 46 54Z" fill="#111B25"/>
<path d="M55 1C55.99 1.66 56.98 2.32 58 3C57.505 3.53625 57.01 4.0725 56.5 4.625C54.6207 7.60059 54.9249 9.54315 55 13C54.34 13.66 53.68 14.32 53 15C51.8388 10.7424 52.1059 7.30779 53 3C53.66 2.34 54.32 1.68 55 1Z" fill="#141D23"/>
<path d="M3 1C7.29 1.33 11.58 1.66 16 2C16 2.33 16 2.66 16 3C15.2523 3.02578 14.5047 3.05156 13.7344 3.07812C7.59308 3.28687 7.59308 3.28687 2.3125 6.0625C1.87938 6.70187 1.44625 7.34125 1 8C1 5 1 5 3 1Z" fill="#1B2B44"/>
</g>
<defs>
<clipPath id="clip0_102_67">
<rect width="100" height="65" fill="white"/>
</clipPath>
</defs>
</svg>
